HIERARCHY
ROOT Hips
{
	OFFSET 0.000000 0.000000 0.000000
	CHANNELS 6 Xposition Yposition Zposition Zrotation Yrotation Xrotation 
	JOINT LHipJoint
	{
		OFFSET 0.000000 0.000000 0.000000
		CHANNELS 3 Zrotation Yrotation Xrotation
		JOINT LeftUpLeg
		{
			OFFSET 1.363060 -1.794630 0.839290
			CHANNELS 3 Zrotation Yrotation Xrotation
			JOINT LeftLeg
			{
				OFFSET 2.448110 -6.726130 0.000000
				CHANNELS 3 Zrotation Yrotation Xrotation
				JOINT LeftFoot
				{
					OFFSET 2.562200 -7.039590 0.000000
					CHANNELS 3 Zrotation Yrotation Xrotation
					JOINT LeftToeBase
					{
						OFFSET 0.157640 -0.433110 2.322550
						CHANNELS 3 Zrotation Yrotation Xrotation
						End Site
						{
							OFFSET 0.000000 0.000000 0.000000
						}
					}
				}
			}
		}
	}
	JOINT RHipJoint
	{
		OFFSET 0.000000 0.000000 0.000000
		CHANNELS 3 Zrotation Yrotation Xrotation
		JOINT RightUpLeg
		{
			OFFSET -1.305520 -1.794630 0.839290
			CHANNELS 3 Zrotation Yrotation Xrotation
			JOINT RightLeg
			{
				OFFSET -2.542530 -6.985550 0.000000
				CHANNELS 3 Zrotation Yrotation Xrotation
				JOINT RightFoot
				{
					OFFSET -2.568260 -7.056230 0.000000
					CHANNELS 3 Zrotation Yrotation Xrotation
					JOINT RightToeBase
					{
						OFFSET -0.164730 -0.452590 2.363150
						CHANNELS 3 Zrotation Yrotation Xrotation
						End Site
						{
							OFFSET 0.000000 0.000000 0.000000
						}
					}
				}
			}
		}
	}
	JOINT LowerBack
	{
		OFFSET 0.000000 0.000000 0.000000
		CHANNELS 3 Zrotation Yrotation Xrotation
		JOINT Spine
		{
			OFFSET 0.028270 2.035590 -0.193380
			CHANNELS 3 Zrotation Yrotation Xrotation
			JOINT Spine1
			{
				OFFSET 0.056720 2.048850 -0.042750
				CHANNELS 3 Zrotation Yrotation Xrotation
				JOINT Neck
				{
					OFFSET 0.000000 0.000000 0.000000
					CHANNELS 3 Zrotation Yrotation Xrotation
					JOINT Neck1
					{
						OFFSET -0.054170 1.746240 0.172020
						CHANNELS 3 Zrotation Yrotation Xrotation
						JOINT Head
						{
							OFFSET 0.104070 1.761360 -0.123970
							CHANNELS 3 Zrotation Yrotation Xrotation
							End Site
							{
								OFFSET 0.000000 0.000000 0.000000
							}
						}
					}
				}
				JOINT LeftShoulder
				{
					OFFSET 0.000000 0.000000 0.000000
					CHANNELS 3 Zrotation Yrotation Xrotation
					JOINT LeftArm
					{
						OFFSET 3.362410 1.200890 -0.311210
						CHANNELS 3 Zrotation Yrotation Xrotation
						JOINT LeftForeArm
						{
							OFFSET 4.983000 -0.000000 -0.000000
							CHANNELS 3 Zrotation Yrotation Xrotation
							JOINT LeftHand
							{
								OFFSET 3.483560 -0.000000 -0.000000
								CHANNELS 3 Zrotation Yrotation Xrotation
								JOINT LeftFingerBase
								{
									OFFSET 0.000000 0.000000 0.000000
									CHANNELS 3 Zrotation Yrotation Xrotation
									JOINT LeftHandIndex1
									{
										OFFSET 0.715260 -0.000000 -0.000000
										CHANNELS 3 Zrotation Yrotation Xrotation
										End Site
										{
											OFFSET 0.000000 0.000000 0.000000
										}
									}
								}
								JOINT LThumb
								{
									OFFSET 0.000000 0.000000 0.000000
									CHANNELS 3 Zrotation Yrotation Xrotation
									End Site
									{
										OFFSET 0.000000 0.000000 0.000000
									}
								}
							}
						}
					}
				}
				JOINT RightShoulder
				{
					OFFSET 0.000000 0.000000 0.000000
					CHANNELS 3 Zrotation Yrotation Xrotation
					JOINT RightArm
					{
						OFFSET -3.136600 1.374050 -0.404650
						CHANNELS 3 Zrotation Yrotation Xrotation
						JOINT RightForeArm
						{
							OFFSET -5.241900 -0.000000 -0.000000
							CHANNELS 3 Zrotation Yrotation Xrotation
							JOINT RightHand
							{
								OFFSET -3.444170 -0.000000 -0.000000
								CHANNELS 3 Zrotation Yrotation Xrotation
								JOINT RightFingerBase
								{
									OFFSET 0.000000 0.000000 0.000000
									CHANNELS 3 Zrotation Yrotation Xrotation
									JOINT RightHandIndex1
									{
										OFFSET -0.622530 -0.000000 -0.000000
										CHANNELS 3 Zrotation Yrotation Xrotation
										End Site
										{
											OFFSET 0.000000 0.000000 0.000000
										}
									}
								}
								JOINT RThumb
								{
									OFFSET 0.000000 0.000000 0.000000
									CHANNELS 3 Zrotation Yrotation Xrotation
									End Site
									{
										OFFSET 0.000000 0.000000 0.000000
									}
								}
							}
						}
					}
				}
			}
		}
	}
}
MOTION
Frames: 4
Frame Time: 0.008333
5.705635 17.488907 27.775238 -142.668293 -85.761698 159.017690 13.610767 -0.708813 -4.767250 -25.062005 -19.487401 -9.242568 -6.261376 6.373084 11.454457 -1.591910 10.448995 10.669918 0.475000 -4.420200 -12.262000 -15.324868 1.409140 -4.553048 29.448327 25.334261 -16.457815 4.502924 -13.003791 22.949438 5.742682 -20.883368 -3.327985 -0.012300 -0.717100 1.970800 2.016848 3.199274 -12.818841 0.368342 3.335629 -5.196246 -5.042902 1.707856 2.739489 3.673001 7.188052 -15.868067 2.799694 8.210304 10.503504 -2.494300 4.242400 11.468300 -4.478863 -8.477560 -1.876213 -74.216945 5.649896 37.475108 14.484749 -18.737309 -3.684079 -1.223705 -1.669470 -29.022021 17.786924 -2.253106 -0.476000 -7.125000 0.000000 0.000000 -5.356700 28.550000 2.153800 7.995414 9.207799 -1.429206 80.158493 -4.759275 25.535657 -17.061267 19.396420 -3.734498 0.249316 1.452313 -0.327681 -3.211704 -12.134448 0.815900 7.125000 0.000000 0.000000 21.404700 -42.526600 1.375200 
5.713338 17.487344 27.778141 -145.071435 -85.879377 161.363519 13.621416 -0.702323 -4.784766 -25.355025 -19.476527 -8.910417 -6.307367 6.146861 10.982095 -1.627763 10.608365 10.857981 0.489900 -4.487800 -12.453200 -15.316735 1.390919 -4.533205 29.188263 25.375489 -16.572298 4.455513 -13.110860 23.189792 5.735775 -20.829416 -3.460053 -0.015400 -0.800000 2.198700 1.816184 3.119540 -12.689605 0.347708 3.309802 -5.188669 -5.062374 1.688675 2.797589 3.738114 7.202098 -16.171061 2.532480 8.234658 10.618440 -2.650800 4.221700 11.676300 -4.470771 -8.527870 -1.861917 -73.832930 5.418288 37.030551 14.396014 -18.625330 -3.646391 -1.110334 -1.622414 -28.390646 16.732356 -2.124010 -0.393100 -7.125000 0.000000 0.000000 -6.285100 28.716900 2.505900 8.005082 9.228095 -1.440945 80.098917 -4.630188 24.144508 -17.138601 19.488350 -3.768872 0.170303 1.468444 0.453032 -2.289000 -11.778655 0.561400 7.125000 0.000000 0.000000 22.155400 -42.112100 1.669200 
5.722382 17.488572 27.780374 -147.471691 -85.995676 163.787782 13.638457 -0.709470 -4.801343 -25.593096 -19.448887 -8.717914 -6.350463 5.957961 10.565520 -1.626032 10.660568 11.011958 0.477100 -4.429700 -12.288800 -15.302126 1.386706 -4.510074 28.886375 25.446709 -16.757822 4.419171 -13.212817 23.376871 5.734287 -20.804068 -3.553962 -0.018100 -0.869500 2.389800 1.563771 3.038343 -12.592931 0.328408 3.281701 -5.196908 -5.007698 1.664056 2.773700 3.530896 7.244724 -16.347993 2.471739 8.365134 10.663624 -2.592900 4.244300 11.769400 -4.490616 -8.566574 -1.858161 -73.471236 5.221312 36.461940 14.303965 -18.508141 -3.604938 -1.031530 -1.578752 -27.673714 15.967547 -2.015037 -0.334100 -7.125000 0.000000 0.000000 -6.965000 28.846800 2.758900 7.978840 9.247511 -1.439184 79.854758 -4.686760 23.355104 -17.339800 19.736154 -3.864401 0.074749 1.497516 0.733789 -1.298966 -11.404395 0.302600 7.125000 0.000000 0.000000 22.955400 -41.686000 1.994100 
5.731537 17.487455 27.783835 -149.458799 -86.084888 165.742119 13.652155 -0.701267 -4.814050 -25.826482 -19.424589 -8.461924 -6.388234 5.763050 10.153060 -1.643585 10.768936 11.192456 0.492600 -4.500100 -12.488200 -15.285700 1.373880 -4.496539 28.668917 25.434922 -16.883544 4.378358 -13.304980 23.577080 5.726303 -20.759805 -3.593056 -0.017300 -0.848600 2.332400 1.391925 2.950540 -12.429738 0.305656 3.238766 -5.193806 -5.039382 1.632341 2.755158 3.457666 7.327663 -16.436511 2.308102 8.509695 10.620168 -2.623300 4.273000 11.787500 -4.513535 -8.628783 -1.824565 -72.940138 4.934943 35.713881 14.136826 -18.297446 -3.529882 -0.938968 -1.499802 -26.919484 14.984002 -2.107588 -0.342600 -7.125000 0.000000 0.000000 -7.821400 28.737400 3.124100 7.968586 9.262797 -1.428902 79.629141 -4.651727 21.811647 -17.496839 19.939993 -3.945821 -0.067497 1.519295 2.251961 0.289953 -10.612356 -0.087600 7.125000 0.000000 0.000000 24.157300 -40.807000 2.676600 
